<?xml version="1.0" encoding="UTF-8" standalone="no"?>
<svg xmlns:ffdec="https://www.free-decompiler.com/flash" xmlns:xlink="http://www.w3.org/1999/xlink" ffdec:objectType="shape" height="15.8px" width="68.45px" xmlns="http://www.w3.org/2000/svg">
  <g transform="matrix(1.0, 0.0, 0.0, 1.0, 34.2, 6.8)">
    <path d="M33.75 1.1 Q33.75 4.15 31.55 6.3 29.4 8.5 26.35 8.5 L-26.3 8.5 Q-29.35 8.5 -31.55 6.3 -33.7 4.15 -33.7 1.1 -33.7 -1.95 -31.55 -4.15 -29.35 -6.3 -26.3 -6.3 L26.35 -6.3 Q29.4 -6.3 31.55 -4.15 33.75 -1.95 33.75 1.1" fill="#66ccff" fill-rule="evenodd" stroke="none"/>
    <path d="M33.75 1.1 Q33.75 -1.95 31.55 -4.15 29.4 -6.3 26.35 -6.3 L-26.3 -6.3 Q-29.35 -6.3 -31.55 -4.15 -33.7 -1.95 -33.7 1.1 -33.7 4.15 -31.55 6.3 -29.35 8.5 -26.3 8.5 L26.35 8.5 Q29.4 8.5 31.55 6.3 33.75 4.15 33.75 1.1 Z" fill="none" stroke="#66ccff" stroke-linecap="round" stroke-linejoin="round" stroke-width="1.0"/>
  </g>
</svg>
